<?xml version="1.0" encoding="UTF-8" standalone="no"?>
<!DOCTYPE svg PUBLIC "-//W3C//DTD SVG 1.1//EN"
 "http://www.w3.org/Graphics/SVG/1.1/DTD/svg11.dtd">
<!-- Generated by graphviz version 5.0.0 (20220707.1540)
 -->
<!-- Title: dependencies Pages: 1 -->
<svg width="1512pt" height="247pt"
 viewBox="0.00 0.00 1512.00 246.80" xmlns="http://www.w3.org/2000/svg" xmlns:xlink="http://www.w3.org/1999/xlink">
<g id="graph0" class="graph" transform="scale(1 1) rotate(0) translate(4 242.8)">
<title>dependencies</title>
<polygon fill="white" stroke="transparent" points="-4,4 -4,-242.8 1508,-242.8 1508,4 -4,4"/>
<text text-anchor="middle" x="752" y="-8.2" font-family="sans-serif" font-size="14.00">dependencies</text>
<g id="clust1" class="cluster">
<title>cluster_AppModule</title>
<polygon fill="none" stroke="black" stroke-dasharray="1,5" points="8,-32.8 8,-230.8 1496,-230.8 1496,-32.8 8,-32.8"/>
</g>
<g id="clust2" class="cluster">
<title>cluster_AppModule_declarations</title>
<polygon fill="none" stroke="black" points="168,-40.8 168,-92.8 1488,-92.8 1488,-40.8 168,-40.8"/>
</g>
<g id="clust11" class="cluster">
<title>cluster_AppModule_imports</title>
<polygon fill="none" stroke="black" points="16,-40.8 16,-92.8 160,-92.8 160,-40.8 16,-40.8"/>
</g>
<g id="clust13" class="cluster">
<title>cluster_AppModule_bootstrap</title>
<polygon fill="none" stroke="black" points="725,-170.8 725,-222.8 849,-222.8 849,-170.8 725,-170.8"/>
</g>
<!-- AppComponent -->
<g id="node1" class="node">
<title>AppComponent</title>
<polygon fill="#ffffb3" stroke="black" points="1479.94,-84.8 1374.06,-84.8 1374.06,-48.8 1479.94,-48.8 1479.94,-84.8"/>
<text text-anchor="middle" x="1427" y="-62.6" font-family="Times,serif" font-size="14.00">AppComponent</text>
</g>
<!-- AppModule -->
<g id="node9" class="node">
<title>AppModule</title>
<polygon fill="#8dd3c7" stroke="black" points="828.66,-149.8 825.66,-153.8 804.66,-153.8 801.66,-149.8 745.34,-149.8 745.34,-113.8 828.66,-113.8 828.66,-149.8"/>
<text text-anchor="middle" x="787" y="-127.6" font-family="Times,serif" font-size="14.00">AppModule</text>
</g>
<!-- AppComponent&#45;&gt;AppModule -->
<g id="edge1" class="edge">
<title>AppComponent&#45;&gt;AppModule</title>
<path fill="none" stroke="black" d="M1427,-84.81C1427,-107.29 1427,-142.8 1427,-142.8 1427,-142.8 838.99,-142.8 838.99,-142.8"/>
<polygon fill="black" stroke="black" points="838.99,-139.3 828.99,-142.8 838.99,-146.3 838.99,-139.3"/>
</g>
<!-- CreateMatrixComponent -->
<g id="node2" class="node">
<title>CreateMatrixComponent</title>
<polygon fill="#ffffb3" stroke="black" points="1355.97,-84.8 1200.03,-84.8 1200.03,-48.8 1355.97,-48.8 1355.97,-84.8"/>
<text text-anchor="middle" x="1278" y="-62.6" font-family="Times,serif" font-size="14.00">CreateMatrixComponent</text>
</g>
<!-- CreateMatrixComponent&#45;&gt;AppModule -->
<g id="edge2" class="edge">
<title>CreateMatrixComponent&#45;&gt;AppModule</title>
<path fill="none" stroke="black" d="M1278,-84.93C1278,-105.37 1278,-135.8 1278,-135.8 1278,-135.8 838.86,-135.8 838.86,-135.8"/>
<polygon fill="black" stroke="black" points="838.86,-132.3 828.86,-135.8 838.86,-139.3 838.86,-132.3"/>
</g>
<!-- HomeComponent -->
<g id="node3" class="node">
<title>HomeComponent</title>
<polygon fill="#ffffb3" stroke="black" points="1181.55,-84.8 1066.45,-84.8 1066.45,-48.8 1181.55,-48.8 1181.55,-84.8"/>
<text text-anchor="middle" x="1124" y="-62.6" font-family="Times,serif" font-size="14.00">HomeComponent</text>
</g>
<!-- HomeComponent&#45;&gt;AppModule -->
<g id="edge3" class="edge">
<title>HomeComponent&#45;&gt;AppModule</title>
<path fill="none" stroke="black" d="M1124,-85.07C1124,-103.36 1124,-128.8 1124,-128.8 1124,-128.8 839,-128.8 839,-128.8"/>
<polygon fill="black" stroke="black" points="839,-125.3 829,-128.8 839,-132.3 839,-125.3"/>
</g>
<!-- IncreaseStockComponent -->
<g id="node4" class="node">
<title>IncreaseStockComponent</title>
<polygon fill="#ffffb3" stroke="black" points="1047.85,-84.8 888.15,-84.8 888.15,-48.8 1047.85,-48.8 1047.85,-84.8"/>
<text text-anchor="middle" x="968" y="-62.6" font-family="Times,serif" font-size="14.00">IncreaseStockComponent</text>
</g>
<!-- IncreaseStockComponent&#45;&gt;AppModule -->
<g id="edge4" class="edge">
<title>IncreaseStockComponent&#45;&gt;AppModule</title>
<path fill="none" stroke="black" d="M968,-84.81C968,-100.85 968,-121.8 968,-121.8 968,-121.8 838.98,-121.8 838.98,-121.8"/>
<polygon fill="black" stroke="black" points="838.98,-118.3 828.98,-121.8 838.98,-125.3 838.98,-118.3"/>
</g>
<!-- ListOfMatricesComponent -->
<g id="node5" class="node">
<title>ListOfMatricesComponent</title>
<polygon fill="#ffffb3" stroke="black" points="870.36,-84.8 703.64,-84.8 703.64,-48.8 870.36,-48.8 870.36,-84.8"/>
<text text-anchor="middle" x="787" y="-62.6" font-family="Times,serif" font-size="14.00">ListOfMatricesComponent</text>
</g>
<!-- ListOfMatricesComponent&#45;&gt;AppModule -->
<g id="edge5" class="edge">
<title>ListOfMatricesComponent&#45;&gt;AppModule</title>
<path fill="none" stroke="black" d="M787,-84.91C787,-84.91 787,-103.79 787,-103.79"/>
<polygon fill="black" stroke="black" points="783.5,-103.79 787,-113.79 790.5,-103.79 783.5,-103.79"/>
</g>
<!-- MatrixDetailComponent -->
<g id="node6" class="node">
<title>MatrixDetailComponent</title>
<polygon fill="#ffffb3" stroke="black" points="685.64,-84.8 532.36,-84.8 532.36,-48.8 685.64,-48.8 685.64,-84.8"/>
<text text-anchor="middle" x="609" y="-62.6" font-family="Times,serif" font-size="14.00">MatrixDetailComponent</text>
</g>
<!-- MatrixDetailComponent&#45;&gt;AppModule -->
<g id="edge6" class="edge">
<title>MatrixDetailComponent&#45;&gt;AppModule</title>
<path fill="none" stroke="black" d="M609,-84.81C609,-100.85 609,-121.8 609,-121.8 609,-121.8 735.27,-121.8 735.27,-121.8"/>
<polygon fill="black" stroke="black" points="735.27,-125.3 745.27,-121.8 735.27,-118.3 735.27,-125.3"/>
</g>
<!-- PageNotFoundComponent -->
<g id="node7" class="node">
<title>PageNotFoundComponent</title>
<polygon fill="#ffffb3" stroke="black" points="514.83,-84.8 349.17,-84.8 349.17,-48.8 514.83,-48.8 514.83,-84.8"/>
<text text-anchor="middle" x="432" y="-62.6" font-family="Times,serif" font-size="14.00">PageNotFoundComponent</text>
</g>
<!-- PageNotFoundComponent&#45;&gt;AppModule -->
<g id="edge7" class="edge">
<title>PageNotFoundComponent&#45;&gt;AppModule</title>
<path fill="none" stroke="black" d="M432,-85.07C432,-103.36 432,-128.8 432,-128.8 432,-128.8 735.23,-128.8 735.23,-128.8"/>
<polygon fill="black" stroke="black" points="735.23,-132.3 745.23,-128.8 735.23,-125.3 735.23,-132.3"/>
</g>
<!-- ReduceStockComponent -->
<g id="node8" class="node">
<title>ReduceStockComponent</title>
<polygon fill="#ffffb3" stroke="black" points="331.7,-84.8 176.3,-84.8 176.3,-48.8 331.7,-48.8 331.7,-84.8"/>
<text text-anchor="middle" x="254" y="-62.6" font-family="Times,serif" font-size="14.00">ReduceStockComponent</text>
</g>
<!-- ReduceStockComponent&#45;&gt;AppModule -->
<g id="edge8" class="edge">
<title>ReduceStockComponent&#45;&gt;AppModule</title>
<path fill="none" stroke="black" d="M254,-84.93C254,-105.37 254,-135.8 254,-135.8 254,-135.8 735.18,-135.8 735.18,-135.8"/>
<polygon fill="black" stroke="black" points="735.18,-139.3 745.18,-135.8 735.18,-132.3 735.18,-139.3"/>
</g>
<!-- AppComponent  -->
<g id="node11" class="node">
<title>AppComponent </title>
<polygon fill="#80b1d3" stroke="black" points="841.44,-214.8 732.56,-214.8 732.56,-178.8 841.44,-178.8 841.44,-214.8"/>
<text text-anchor="middle" x="787" y="-192.6" font-family="Times,serif" font-size="14.00">AppComponent </text>
</g>
<!-- AppModule&#45;&gt;AppComponent  -->
<g id="edge10" class="edge">
<title>AppModule&#45;&gt;AppComponent </title>
<path fill="none" stroke="black" stroke-dasharray="1,5" d="M787,-149.91C787,-149.91 787,-168.79 787,-168.79"/>
<polygon fill="black" stroke="black" points="783.5,-168.79 787,-178.79 790.5,-168.79 783.5,-168.79"/>
</g>
<!-- AppRoutingModule -->
<g id="node10" class="node">
<title>AppRoutingModule</title>
<polygon fill="#8dd3c7" stroke="black" points="152.28,-84.8 149.28,-88.8 128.28,-88.8 125.28,-84.8 23.72,-84.8 23.72,-48.8 152.28,-48.8 152.28,-84.8"/>
<text text-anchor="middle" x="88" y="-62.6" font-family="Times,serif" font-size="14.00">AppRoutingModule</text>
</g>
<!-- AppRoutingModule&#45;&gt;AppModule -->
<g id="edge9" class="edge">
<title>AppRoutingModule&#45;&gt;AppModule</title>
<path fill="none" stroke="black" d="M88,-84.81C88,-107.29 88,-142.8 88,-142.8 88,-142.8 735.11,-142.8 735.11,-142.8"/>
<polygon fill="black" stroke="black" points="735.11,-146.3 745.11,-142.8 735.11,-139.3 735.11,-146.3"/>
</g>
</g>
</svg>
